<svg width="383" height="163" viewBox="0 0 383 163" fill="none" xmlns="http://www.w3.org/2000/svg">
<circle cx="346.237" cy="36.0142" r="24.8439" transform="rotate(6.77148 346.237 36.0142)" stroke="#B12F2F" stroke-width="10" stroke-dasharray="20 40 60 80"/>
<circle cx="345.383" cy="35.612" r="11.0422" transform="rotate(6.77148 345.383 35.612)" fill="#B12F2F"/>
<line y1="-2.5" x2="45.2512" y2="-2.5" transform="matrix(0.994381 -0.105856 0.14733 0.989088 293.261 44.0641)" stroke="#B12F2F" stroke-width="5"/>
<rect x="0.863766" y="-1.08391" width="6.42809" height="12.6487" transform="matrix(-0.131933 -0.991259 0.995699 -0.0926489 294.616 46.6871)" stroke="#B12F2F" stroke-width="2"/>
<rect x="236" y="26" width="21" height="70" fill="#DC585B"/>
<path d="M21.6268 27H0.257446V61.5H27.291V32.6642L21.6268 27Z" fill="#F52F3E"/>
<path d="M21.6268 32.6642V27L27.291 32.6642H21.6268Z" fill="#D9D9D9"/>
<path d="M0 36.5261H4.89179C5.31837 36.5261 5.66418 36.872 5.66418 37.2985C5.66418 37.7251 5.31837 38.0709 4.89179 38.0709H0V36.5261Z" fill="black"/>
<path d="M0 39.1008H8.49627C8.92285 39.1008 9.26866 39.4466 9.26866 39.8731C9.26866 40.2997 8.92285 40.6455 8.49627 40.6455H0V39.1008Z" fill="black"/>
<path d="M0 41.1605H8.49627C8.92285 41.1605 9.26866 41.5063 9.26866 41.9329C9.26866 42.3595 8.92285 42.7053 8.49627 42.7053H0V41.1605Z" fill="black"/>
<path d="M0 43.2202H8.49627C8.92285 43.2202 9.26866 43.566 9.26866 43.9926C9.26866 44.4192 8.92285 44.765 8.49627 44.765H0V43.2202Z" fill="black"/>
<path d="M0 45.2798H4.89179C5.31837 45.2798 5.66418 45.6256 5.66418 46.0522C5.66418 46.4787 5.31837 46.8245 4.89179 46.8245H0V45.2798Z" fill="black"/>
<path d="M22.6347 96H10.5437L26.2483 49.4545H41.2256L56.9301 96H44.8392L33.9074 61.1818H33.5437L22.6347 96ZM21.021 77.6818H46.2937V86.2273H21.021V77.6818ZM65.1415 96V49.4545H84.5506C88.0354 49.4545 90.9521 49.947 93.3006 50.9318C95.6642 51.9167 97.4369 53.2955 98.6187 55.0682C99.8157 56.8409 100.414 58.8939 100.414 61.2273C100.414 63 100.043 64.5833 99.3006 65.9773C98.5581 67.3561 97.5354 68.5 96.2324 69.4091C94.9294 70.3182 93.4218 70.9545 91.7097 71.3182V71.7727C93.5884 71.8636 95.3233 72.3712 96.9142 73.2955C98.5203 74.2197 99.8081 75.5076 100.778 77.1591C101.748 78.7955 102.232 80.7348 102.232 82.9773C102.232 85.4773 101.596 87.7121 100.323 89.6818C99.0506 91.6364 97.2097 93.1818 94.8006 94.3182C92.3915 95.4394 89.4672 96 86.0278 96H65.1415ZM76.3915 86.9318H83.346C85.7854 86.9318 87.5809 86.4697 88.7324 85.5455C89.8991 84.6212 90.4824 83.3333 90.4824 81.6818C90.4824 80.4848 90.2021 79.4545 89.6415 78.5909C89.0809 77.7121 88.2854 77.0379 87.2551 76.5682C86.2248 76.0833 84.99 75.8409 83.5506 75.8409H76.3915V86.9318ZM76.3915 68.5909H82.6187C83.846 68.5909 84.9369 68.3864 85.8915 67.9773C86.846 67.5682 87.5884 66.9773 88.1187 66.2045C88.6642 65.4318 88.9369 64.5 88.9369 63.4091C88.9369 61.8485 88.3839 60.6212 87.2778 59.7273C86.1718 58.8333 84.6794 58.3864 82.8006 58.3864H76.3915V68.5909ZM154.773 72.7273C154.773 77.8485 153.788 82.1894 151.819 85.75C149.849 89.3106 147.182 92.0152 143.819 93.8636C140.47 95.7121 136.713 96.6364 132.546 96.6364C128.364 96.6364 124.599 95.7045 121.251 93.8409C117.902 91.9773 115.243 89.2727 113.273 85.7273C111.319 82.1667 110.341 77.8333 110.341 72.7273C110.341 67.6061 111.319 63.2652 113.273 59.7045C115.243 56.1439 117.902 53.4394 121.251 51.5909C124.599 49.7424 128.364 48.8182 132.546 48.8182C136.713 48.8182 140.47 49.7424 143.819 51.5909C147.182 53.4394 149.849 56.1439 151.819 59.7045C153.788 63.2652 154.773 67.6061 154.773 72.7273ZM143.273 72.7273C143.273 69.697 142.841 67.1364 141.978 65.0455C141.129 62.9545 139.902 61.3712 138.296 60.2955C136.705 59.2197 134.788 58.6818 132.546 58.6818C130.319 58.6818 128.402 59.2197 126.796 60.2955C125.19 61.3712 123.955 62.9545 123.091 65.0455C122.243 67.1364 121.819 69.697 121.819 72.7273C121.819 75.7576 122.243 78.3182 123.091 80.4091C123.955 82.5 125.19 84.0833 126.796 85.1591C128.402 86.2348 130.319 86.7727 132.546 86.7727C134.788 86.7727 136.705 86.2348 138.296 85.1591C139.902 84.0833 141.129 82.5 141.978 80.4091C142.841 78.3182 143.273 75.7576 143.273 72.7273ZM192.701 49.4545H203.928V79.4773C203.928 82.947 203.102 85.9697 201.451 88.5455C199.799 91.1061 197.496 93.0909 194.541 94.5C191.587 95.8939 188.155 96.5909 184.246 96.5909C180.291 96.5909 176.837 95.8939 173.882 94.5C170.928 93.0909 168.632 91.1061 166.996 88.5455C165.36 85.9697 164.541 82.947 164.541 79.4773V49.4545H175.791V78.5C175.791 80.1061 176.14 81.5379 176.837 82.7955C177.549 84.053 178.541 85.0379 179.814 85.75C181.087 86.4621 182.564 86.8182 184.246 86.8182C185.928 86.8182 187.398 86.4621 188.655 85.75C189.928 85.0379 190.92 84.053 191.632 82.7955C192.345 81.5379 192.701 80.1061 192.701 78.5V49.4545ZM212.656 58.5909V49.4545H251.997V58.5909H237.884V96H226.793V58.5909H212.656ZM322.751 49.4545H333.978V79.4773C333.978 82.947 333.152 85.9697 331.501 88.5455C329.849 91.1061 327.546 93.0909 324.591 94.5C321.637 95.8939 318.205 96.5909 314.296 96.5909C310.341 96.5909 306.887 95.8939 303.932 94.5C300.978 93.0909 298.682 91.1061 297.046 88.5455C295.41 85.9697 294.591 82.947 294.591 79.4773V49.4545H305.841V78.5C305.841 80.1061 306.19 81.5379 306.887 82.7955C307.599 84.053 308.591 85.0379 309.864 85.75C311.137 86.4621 312.614 86.8182 314.296 86.8182C315.978 86.8182 317.448 86.4621 318.705 85.75C319.978 85.0379 320.97 84.053 321.682 82.7955C322.394 81.5379 322.751 80.1061 322.751 78.5V49.4545ZM369.388 63.4091C369.237 61.7424 368.562 60.447 367.365 59.5227C366.184 58.5833 364.494 58.1136 362.297 58.1136C360.843 58.1136 359.63 58.303 358.661 58.6818C357.691 59.0606 356.964 59.5833 356.479 60.25C355.994 60.9015 355.744 61.6515 355.729 62.5C355.699 63.197 355.835 63.8106 356.138 64.3409C356.456 64.8712 356.911 65.3409 357.502 65.75C358.108 66.1439 358.835 66.4924 359.684 66.7955C360.532 67.0985 361.487 67.3636 362.547 67.5909L366.547 68.5C368.85 69 370.88 69.6667 372.638 70.5C374.411 71.3333 375.896 72.3258 377.093 73.4773C378.305 74.6288 379.221 75.9545 379.843 77.4545C380.464 78.9545 380.782 80.6364 380.797 82.5C380.782 85.4394 380.04 87.9621 378.57 90.0682C377.1 92.1742 374.987 93.7879 372.229 94.9091C369.487 96.0303 366.176 96.5909 362.297 96.5909C358.403 96.5909 355.009 96.0076 352.115 94.8409C349.221 93.6742 346.971 91.9015 345.365 89.5227C343.759 87.1439 342.934 84.1364 342.888 80.5H353.661C353.752 82 354.153 83.25 354.865 84.25C355.577 85.25 356.555 86.0076 357.797 86.5227C359.055 87.0379 360.509 87.2955 362.161 87.2955C363.676 87.2955 364.964 87.0909 366.024 86.6818C367.1 86.2727 367.926 85.7045 368.502 84.9773C369.077 84.25 369.373 83.4167 369.388 82.4773C369.373 81.5985 369.1 80.8485 368.57 80.2273C368.04 79.5909 367.221 79.0455 366.115 78.5909C365.024 78.1212 363.63 77.6894 361.934 77.2955L357.07 76.1591C353.04 75.2348 349.865 73.7424 347.547 71.6818C345.229 69.6061 344.077 66.803 344.093 63.2727C344.077 60.3939 344.85 57.8712 346.411 55.7045C347.971 53.5379 350.13 51.8485 352.888 50.6364C355.646 49.4242 358.79 48.8182 362.32 48.8182C365.926 48.8182 369.055 49.4318 371.706 50.6591C374.373 51.8712 376.441 53.5758 377.911 55.7727C379.38 57.9697 380.13 60.5151 380.161 63.4091H369.388Z" fill="black"/>
<rect x="29.5" y="67.5" width="36" height="28" stroke="#B12F2F"/>
<path d="M23.67 81.2082L33.821 79.0182C33.8532 79.0113 33.8694 79.0078 33.8857 79.0054C33.899 79.0034 33.9124 79.002 33.9258 79.0011C33.9423 79 33.9588 79 33.9918 79H68.19C68.4795 79 68.6242 79 68.734 79.0581C68.8225 79.105 68.895 79.1775 68.9419 79.266C69 79.3758 69 79.5205 69 79.81V84.19C69 84.4795 69 84.6242 68.9419 84.734C68.895 84.8225 68.8225 84.895 68.734 84.9419C68.6242 85 68.4795 85 68.19 85H33.9918C33.9588 85 33.9423 85 33.9258 84.9989C33.9124 84.998 33.899 84.9966 33.8857 84.9946C33.8694 84.9922 33.8532 84.9887 33.821 84.9818L23.67 82.7918C22.5877 82.5583 22.0465 82.4415 21.936 82.2468C21.8492 82.0937 21.8492 81.9063 21.936 81.7532C22.0465 81.5585 22.5877 81.4417 23.67 81.2082Z" stroke="#B12F2F"/>
<path d="M65.6023 81.8598H28.9939" stroke="#B12F2F"/>
<path d="M65.5 50H87.5" stroke="#B12F2F" stroke-width="2"/>
<path d="M74 60H87" stroke="#B12F2F"/>
<path d="M74 62H87" stroke="#B12F2F"/>
<path d="M74 77H87" stroke="#B12F2F"/>
<path d="M74 79H87" stroke="#B12F2F"/>
<line y1="-0.25" x2="2.06746" y2="-0.25" transform="matrix(0.875242 -0.483686 0.100985 0.994888 71.1904 62)" stroke="black" stroke-width="0.5"/>
<line y1="-0.25" x2="2.00905" y2="-0.25" transform="matrix(-0.094809 -0.995496 0.650791 -0.759257 71.1904 62)" stroke="black" stroke-width="0.5"/>
<line y1="-0.25" x2="2.06746" y2="-0.25" transform="matrix(0.875242 -0.483686 0.100985 0.994888 71.1904 78.6666)" stroke="black" stroke-width="0.5"/>
<line y1="-0.25" x2="2.00905" y2="-0.25" transform="matrix(-0.094809 -0.995496 0.650791 -0.759257 71.1904 78.6666)" stroke="black" stroke-width="0.5"/>
<circle cx="104" cy="127.368" r="30" fill="#F52F3E"/>
<path d="M104.153 109.536C103.161 109.536 102.361 109.232 101.753 108.624C101.145 107.984 100.841 107.168 100.841 106.176C100.841 105.184 101.145 104.384 101.753 103.776C102.361 103.168 103.161 102.864 104.153 102.864C105.113 102.864 105.913 103.168 106.553 103.776C107.193 104.384 107.513 105.184 107.513 106.176C107.513 107.168 107.193 107.984 106.553 108.624C105.913 109.232 105.113 109.536 104.153 109.536ZM97.7212 115.008V113.664H106.937V133.968C106.937 135.056 106.985 135.712 107.081 135.936C107.177 136.128 107.481 136.256 107.993 136.32L110.633 136.656V138H97.7212V136.656L100.361 136.32C100.873 136.256 101.177 136.128 101.273 135.936C101.369 135.712 101.417 135.056 101.417 133.968V117.696C101.417 116.608 101.369 115.968 101.273 115.776C101.177 115.552 100.873 115.408 100.361 115.344L97.7212 115.008Z" fill="white"/>
<circle cx="133" cy="73" r="14" stroke="#B12F2F" stroke-width="2"/>
<circle cx="132.85" cy="69.2501" r="3.35" stroke="#B12F2F" stroke-width="2"/>
<path d="M128.6 74.9001C128.6 74.5687 128.869 74.3001 129.2 74.3001H136.5C136.831 74.3001 137.1 74.5687 137.1 74.9001V77.6501C137.1 79.9973 135.197 81.9001 132.85 81.9001C130.503 81.9001 128.6 79.9973 128.6 77.6501V74.9001Z" stroke="#B12F2F" stroke-width="2"/>
<circle cx="97.5" cy="27.5" r="9.5" stroke="#B12F2F" stroke-width="2"/>
<circle cx="97.395" cy="24.875" r="2.045" stroke="#B12F2F" stroke-width="2"/>
<path d="M94.72 28.8301C94.72 28.7639 94.7737 28.7101 94.84 28.7101H99.95C100.016 28.7101 100.07 28.7639 100.07 28.8301V30.7551C100.07 32.2325 98.8723 33.4301 97.395 33.4301C95.9176 33.4301 94.72 32.2325 94.72 30.7551V28.8301Z" stroke="#B12F2F" stroke-width="2"/>
<circle cx="163.5" cy="14.5" r="9.5" stroke="#B12F2F" stroke-width="2"/>
<circle cx="163.395" cy="11.875" r="2.045" stroke="#B12F2F" stroke-width="2"/>
<path d="M160.72 15.8301C160.72 15.7639 160.774 15.7101 160.84 15.7101H165.95C166.016 15.7101 166.07 15.7639 166.07 15.8301V17.7551C166.07 19.2325 164.872 20.4301 163.395 20.4301C161.918 20.4301 160.72 19.2325 160.72 17.7551V15.8301Z" stroke="#B12F2F" stroke-width="2"/>
<line x1="104.41" y1="33.7133" x2="118.41" y2="53.7133" stroke="#BB0A0A" stroke-dasharray="2 2"/>
<line x1="137.57" y1="60.7445" x2="159.57" y2="23.7445" stroke="#B12F2F" stroke-dasharray="2 2"/>
<path d="M165.577 60.6635V55C165.577 53.3431 166.92 52 168.577 52H204.096C205.753 52 207.096 53.3431 207.096 55V100C207.096 101.657 205.753 103 204.096 103H168.577C166.92 103 165.577 101.657 165.577 100V96.2981" stroke="#B12F2F"/>
<line x1="169.538" y1="60.1633" x2="186.538" y2="60.1633" stroke="#B12F2F"/>
<line x1="161" y1="65.0672" x2="183.558" y2="65.0672" stroke="#B12F2F"/>
<line x1="161" y1="72.2981" x2="183.558" y2="72.2981" stroke="#B12F2F"/>
<line x1="161" y1="79.1633" x2="176.038" y2="79.1633" stroke="#B12F2F"/>
<line x1="161" y1="87.3171" x2="172.442" y2="87.3171" stroke="#B12F2F"/>
<circle cx="194.673" cy="80.6059" r="7.67308" stroke="#B12F2F"/>
<path d="M190.021 88.9575C190.021 87.5768 191.141 86.4575 192.521 86.4575H196.996C198.376 86.4575 199.496 87.5768 199.496 88.9575V96.8785C199.496 98.5825 197.744 99.7237 196.185 99.0347C195.332 98.6575 194.352 98.6572 193.498 99.0224C191.859 99.7231 190.021 98.5284 190.021 96.7661V88.9575Z" stroke="#B12F2F"/>
<rect x="225.5" y="65.5" width="15" height="30" stroke="#B12F2F"/>
<rect x="225.5" y="66.5" width="15" height="4" stroke="#B12F2F"/>
<path d="M214 97L301 97" stroke="#B12F2F" stroke-width="2"/>
<path d="M239 103H242" stroke="#B12F2F" stroke-width="2"/>
<path d="M244 103H252" stroke="#B12F2F" stroke-width="2"/>
<path d="M261 109H258" stroke="#B12F2F" stroke-width="2"/>
<path d="M254 103L276 103" stroke="#B12F2F" stroke-width="2"/>
<path d="M257 109L248 109" stroke="#B12F2F" stroke-width="2"/>
<path d="M188 120L191 120" stroke="#B12F2F" stroke-width="2"/>
<path d="M192 120L201 120" stroke="#B12F2F" stroke-width="2"/>
<path d="M177 126L180 126" stroke="#B12F2F" stroke-width="2"/>
<path d="M181 126L190 126" stroke="#B12F2F" stroke-width="2"/>
<rect x="227" y="72" width="2" height="1" fill="#B12F2F"/>
<rect x="227" y="77" width="2" height="1" fill="#B12F2F"/>
<rect x="227" y="83" width="2" height="1" fill="#B12F2F"/>
<rect x="227" y="88" width="2" height="1" fill="#B12F2F"/>
<rect x="227" y="75" width="2" height="1" fill="#B12F2F"/>
<rect x="227" y="80" width="2" height="1" fill="#B12F2F"/>
<rect x="227" y="86" width="2" height="1" fill="#B12F2F"/>
<rect x="227" y="91" width="2" height="1" fill="#B12F2F"/>
<rect x="230" y="72" width="2" height="1" fill="#B12F2F"/>
<rect x="230" y="77" width="2" height="1" fill="#B12F2F"/>
<rect x="230" y="83" width="2" height="1" fill="#B12F2F"/>
<rect x="230" y="88" width="2" height="1" fill="#B12F2F"/>
<rect x="230" y="75" width="2" height="1" fill="#B12F2F"/>
<rect x="230" y="80" width="2" height="1" fill="#B12F2F"/>
<rect x="230" y="86" width="2" height="1" fill="#B12F2F"/>
<rect x="230" y="91" width="2" height="1" fill="#B12F2F"/>
<rect x="233" y="72" width="2" height="1" fill="#B12F2F"/>
<rect x="233" y="77" width="2" height="1" fill="#B12F2F"/>
<rect x="233" y="83" width="2" height="1" fill="#B12F2F"/>
<rect x="233" y="88" width="2" height="1" fill="#B12F2F"/>
<rect x="233" y="75" width="2" height="1" fill="#B12F2F"/>
<rect x="233" y="80" width="2" height="1" fill="#B12F2F"/>
<rect x="233" y="86" width="2" height="1" fill="#B12F2F"/>
<rect x="233" y="91" width="2" height="1" fill="#B12F2F"/>
<rect x="236" y="72" width="2" height="1" fill="#B12F2F"/>
<rect x="236" y="77" width="2" height="1" fill="#B12F2F"/>
<rect x="236" y="83" width="2" height="1" fill="#B12F2F"/>
<rect x="236" y="88" width="2" height="1" fill="#B12F2F"/>
<rect x="236" y="75" width="2" height="1" fill="#B12F2F"/>
<rect x="236" y="80" width="2" height="1" fill="#B12F2F"/>
<rect x="236" y="86" width="2" height="1" fill="#B12F2F"/>
<rect x="236" y="91" width="2" height="1" fill="#B12F2F"/>
<rect x="244" y="49" width="8" height="2" fill="#B12F2F"/>
<rect x="239" y="49" width="2" height="2" fill="#B12F2F"/>
<rect x="244" y="45" width="2" height="2" fill="black"/>
<rect x="244" y="41" width="2" height="2" fill="black"/>
<rect x="251" y="35" width="2" height="2" fill="black"/>
<rect x="267" y="47" width="21" height="48" stroke="black" stroke-width="2"/>
<rect x="270" y="42" width="14" height="4" stroke="black" stroke-width="2"/>
<rect x="276" y="36" width="2" height="7" fill="black"/>
<rect x="272" y="52" width="1" height="12" transform="rotate(-90 272 52)" fill="black"/>
<rect x="272" y="55" width="1" height="12" transform="rotate(-90 272 55)" fill="black"/>
<rect x="272" y="58" width="1" height="12" transform="rotate(-90 272 58)" fill="black"/>
<rect x="272" y="61" width="1" height="12" transform="rotate(-90 272 61)" fill="black"/>
<rect x="272" y="64" width="1" height="12" transform="rotate(-90 272 64)" fill="black"/>
<rect x="272" y="67" width="1" height="12" transform="rotate(-90 272 67)" fill="black"/>
<rect x="272" y="70" width="1" height="12" transform="rotate(-90 272 70)" fill="black"/>
<rect x="272" y="73" width="1" height="12" transform="rotate(-90 272 73)" fill="black"/>
<rect x="272" y="76" width="1" height="12" transform="rotate(-90 272 76)" fill="black"/>
<rect x="272" y="79" width="1" height="12" transform="rotate(-90 272 79)" fill="black"/>
<rect x="272" y="82" width="1" height="12" transform="rotate(-90 272 82)" fill="black"/>
<rect x="272" y="85" width="1" height="12" transform="rotate(-90 272 85)" fill="black"/>
<rect x="272" y="88" width="1" height="12" transform="rotate(-90 272 88)" fill="black"/>
<rect x="272" y="91" width="1" height="12" transform="rotate(-90 272 91)" fill="black"/>
<path d="M314.595 92.1477C312.429 92.1477 310.482 91.8144 308.754 91.1477C307.027 90.4811 305.554 89.5189 304.334 88.2614C303.122 87.0114 302.19 85.5038 301.538 83.7386C300.894 81.9735 300.572 80 300.572 77.8182C300.572 75.6818 300.898 73.7424 301.55 72C302.209 70.2576 303.144 68.7614 304.357 67.5114C305.576 66.2614 307.031 65.2992 308.72 64.625C310.417 63.9432 312.304 63.6023 314.379 63.6023C316.41 63.6023 318.228 63.9583 319.834 64.6705C321.44 65.375 322.807 66.3371 323.936 67.5568C325.065 68.7765 325.925 70.1667 326.516 71.7273C327.114 73.2803 327.413 74.9053 327.413 76.6023C327.413 77.678 327.33 78.7386 327.163 79.7841C327.004 80.8295 326.728 81.7765 326.334 82.625C325.94 83.4735 325.394 84.1515 324.697 84.6591C324 85.1591 323.118 85.4091 322.05 85.4091C321.489 85.4091 320.936 85.3182 320.391 85.1364C319.853 84.947 319.391 84.6402 319.004 84.2159C318.625 83.7841 318.406 83.2083 318.345 82.4886H318.232C317.989 83.0341 317.648 83.5341 317.209 83.9886C316.769 84.4356 316.228 84.7917 315.584 85.0568C314.947 85.322 314.209 85.4432 313.368 85.4205C312.413 85.3977 311.554 85.1856 310.788 84.7841C310.031 84.3826 309.383 83.8333 308.845 83.1364C308.315 82.4394 307.91 81.6326 307.629 80.7159C307.349 79.7917 307.209 78.7955 307.209 77.7273C307.209 76.697 307.364 75.7462 307.675 74.875C307.993 74.0038 308.429 73.2424 308.982 72.5909C309.542 71.9394 310.197 71.4205 310.947 71.0341C311.697 70.6477 312.504 70.4242 313.368 70.3636C314.141 70.3106 314.853 70.3864 315.504 70.5909C316.156 70.7879 316.709 71.0758 317.163 71.4545C317.618 71.8333 317.944 72.2614 318.141 72.7386H318.254V70.6818H320.107V81.2159C320.107 82.0114 320.262 82.6326 320.572 83.0795C320.891 83.5189 321.391 83.7386 322.072 83.7386C322.898 83.7386 323.569 83.4697 324.084 82.9318C324.607 82.3864 324.989 81.5833 325.232 80.5227C325.474 79.4545 325.595 78.1402 325.595 76.5795C325.595 75.3977 325.429 74.2538 325.095 73.1477C324.769 72.0341 324.292 71.0038 323.663 70.0568C323.035 69.1023 322.262 68.2689 321.345 67.5568C320.429 66.8371 319.379 66.2765 318.197 65.875C317.023 65.4735 315.72 65.2727 314.288 65.2727C312.516 65.2727 310.906 65.572 309.459 66.1705C308.012 66.7689 306.766 67.625 305.72 68.7386C304.682 69.8523 303.883 71.1818 303.322 72.7273C302.762 74.2652 302.482 75.9811 302.482 77.875C302.482 79.7917 302.762 81.5227 303.322 83.0682C303.883 84.6136 304.69 85.9356 305.743 87.0341C306.804 88.1326 308.084 88.9773 309.584 89.5682C311.084 90.1591 312.773 90.4545 314.652 90.4545C315.485 90.4545 316.304 90.3712 317.107 90.2045C317.917 90.0455 318.652 89.8485 319.311 89.6136C319.978 89.3788 320.516 89.1477 320.925 88.9205L321.504 90.5114C320.944 90.8144 320.277 91.0909 319.504 91.3409C318.739 91.5909 317.929 91.7879 317.072 91.9318C316.224 92.0758 315.398 92.1477 314.595 92.1477ZM313.607 83.6364C314.637 83.6364 315.504 83.3977 316.209 82.9205C316.913 82.4432 317.444 81.7576 317.8 80.8636C318.163 79.9697 318.345 78.8939 318.345 77.6364C318.345 76.3712 318.152 75.3295 317.766 74.5114C317.387 73.6932 316.845 73.0871 316.141 72.6932C315.444 72.2917 314.618 72.0909 313.663 72.0909C312.739 72.0909 311.929 72.3447 311.232 72.8523C310.542 73.3523 310 74.0227 309.607 74.8636C309.22 75.7045 309.027 76.6288 309.027 77.6364C309.027 78.7045 309.197 79.6932 309.538 80.6023C309.887 81.5114 310.398 82.2462 311.072 82.8068C311.754 83.3598 312.599 83.6364 313.607 83.6364Z" fill="#B12F2F"/>
<rect x="208" y="116" width="24" height="16.2" stroke="#B12F2F" stroke-width="2"/>
<path d="M208 116L220 129L232 116" stroke="#B12F2F" stroke-width="2"/>
</svg>
