<svg width="307" height="212" viewBox="0 0 307 212" fill="none" xmlns="http://www.w3.org/2000/svg">
<g clip-path="url(#clip0_140_231)">
<path d="M9.46336 94.9869C4.94388 86.6805 3.64546 76.9773 5.86775 67.7979C12.185 41.7812 30.0632 -3.89151 77.3804 2.56901C143.05 11.5489 162.152 13.7939 189.094 5.36275C216.036 -3.06836 262.629 -3.04341 277.211 16.0139C286.05 27.563 315.939 79.3719 296.862 97.3317C277.786 115.291 306.101 150.812 306.975 169.67C307.849 188.527 280.607 190.972 246.349 191.546C212.091 192.119 13.0839 185.584 13.0839 185.584C13.0839 185.584 -12.4349 141.632 7.7904 125.943C20.3001 116.214 14.682 104.59 9.46336 94.9869Z" fill="#F8F8FF"/>
<path d="M29.3641 165.03C24.9945 164.881 8.58949 167.126 7.61568 167.974C7.36599 168.198 3.77038 178.874 19.5761 192.643C44.8452 214.694 112.812 215.442 134.835 207.061C166.796 194.888 201.828 217.712 274.415 208.982C297.611 206.188 313.118 170.693 302.58 166.078C296.263 163.334 288.697 170.618 282.355 167.425C275.039 163.733 260.232 161.438 251.068 164.257C250.694 164.357 250.469 164.756 250.569 165.13C250.669 165.479 251.018 165.704 251.393 165.629L246.574 167.175C241.205 171.166 242.404 165.853 229.819 165.18L192.715 164.257C179.456 164.656 128.393 166.901 108.418 166.103H97.431C90.0899 165.18 71.0882 164.756 70.389 164.731L29.3641 165.03Z" fill="#F5F5FC"/>
<path d="M44.4706 110.727H55.7069C55.7069 110.727 59.2026 111.226 59.4523 113.72C59.702 116.215 59.3774 148.667 59.3774 148.667L81.9249 148.393C81.9249 148.393 84.1721 149.141 84.1721 151.635C84.1721 154.13 82.4243 155.127 82.4243 155.127L48.1661 154.978L44.4706 110.727Z" fill="#F52F3E"/>
<path d="M44.4707 110.727C44.4707 110.727 41.2246 111.226 40.9749 116.215C40.7252 121.203 40.9749 154.878 40.9749 154.878L75.2081 155.127C75.7075 155.127 76.1819 154.928 76.5065 154.554C77.0059 154.005 77.6801 153.157 77.6801 152.384C77.6801 151.037 77.1807 148.891 74.4341 148.891C71.6874 148.891 48.4658 148.642 48.4658 148.642L47.9664 113.72C47.9664 113.745 47.9664 111.226 44.4707 110.727Z" fill="#B1C1F2"/>
<path d="M58.8031 155.053C58.8031 155.053 58.2039 157.871 60.2014 157.871H63.4475C63.6972 157.871 64.7709 156.375 64.0967 155.127C63.4225 153.88 58.8031 155.053 58.8031 155.053Z" fill="#F52F3E"/>
<path d="M60.2014 157.896L60.4511 186.058H62.6984L62.8232 157.722L60.2014 157.896Z" fill="#E9EDFA"/>
<path d="M50.9627 185.559L72.4365 185.809V187.804L50.9627 187.555V185.559Z" fill="#E9EDFA"/>
<path d="M93.4109 188.054L92.4121 135.92H97.6557L97.406 188.054H93.4109Z" fill="white"/>
<path d="M207.521 136.17H213.264L211.267 188.303L207.521 188.553V136.17Z" fill="white"/>
<path d="M88.417 126.941L88.6667 135.422L215.761 136.17L215.911 126.691L88.417 126.941Z" fill="#E9EDFA"/>
<path d="M80.6765 122.201L223.502 122.7V127.439L80.9261 127.19L80.6765 122.201Z" fill="#F52F3E"/>
<path d="M255.388 166.552L255.638 187.754L284.103 187.255V166.552H255.388Z" fill="#E9EDFA"/>
<path d="M277.861 187.355L277.886 166.552H276.063" fill="white"/>
<path d="M262.779 166.502C262.779 166.502 262.105 153.93 268.048 150.363C273.99 146.796 268.897 138.465 270.095 134.05C271.294 129.635 276.887 126.392 276.887 122.999C276.887 119.607 276.387 110.078 282.83 107.21C289.272 104.341 294.39 108.058 292.368 113.67C290.345 119.283 288.797 125.743 286.575 127.764C284.353 129.784 285.227 133.027 285.551 136.943C285.876 140.859 282.83 147.295 281.132 149.69C279.434 152.084 281.132 156.15 280.632 160.391C280.632 160.391 279.708 166.327 278.76 166.527C277.811 166.726 262.779 166.502 262.779 166.502Z" fill="#F52F3E"/>
<path d="M276.063 166.901C276.063 166.901 276.812 160.914 270.17 159.218C263.528 157.522 269.221 153.556 267.898 151.461C266.574 149.365 260.307 147.819 260.307 146.222C260.307 144.626 260.881 140.086 253.665 138.714C246.449 137.342 240.756 139.113 243.028 141.782C245.3 144.451 247.023 147.519 249.47 148.492C251.917 149.465 250.993 150.987 250.619 152.858C250.244 154.728 253.665 157.796 255.563 158.919C257.461 160.041 255.563 161.987 256.137 164.008C256.137 164.008 257.186 166.826 258.21 166.926C259.233 167.026 276.063 166.901 276.063 166.901Z" fill="#F52F3E"/>
<path d="M270.52 166.876C270.52 166.876 269.995 160.615 274.615 158.844C279.234 157.073 275.289 152.932 276.188 150.737C277.087 148.542 281.481 146.946 281.481 145.25C281.481 143.553 281.082 138.839 286.101 137.392C291.119 135.945 295.09 137.816 293.492 140.61C291.893 143.404 290.72 146.597 288.997 147.619C287.274 148.642 287.948 150.238 288.198 152.184C288.448 154.13 286.076 157.347 284.752 158.52C283.429 159.692 284.752 161.738 284.353 163.833C284.353 163.833 283.629 166.776 282.904 166.876C282.18 166.976 270.52 166.876 270.52 166.876Z" fill="#F52F3E"/>
<path d="M110.34 46.3212L110.515 94.164L243.727 93.9645V46.6954L110.34 46.3212Z" fill="white"/>
<path d="M134.161 61.2877V67.1745L188.719 66.925V61.2877H134.161Z" fill="#F52F3E"/>
<path d="M134.161 77.676V83.5628L188.719 83.3133V77.676H134.161Z" fill="#F52F3E"/>
<path d="M124.947 69.2199C127.209 69.2199 129.042 67.3884 129.042 65.1291C129.042 62.8698 127.209 61.0382 124.947 61.0382C122.686 61.0382 120.852 62.8698 120.852 65.1291C120.852 67.3884 122.686 69.2199 124.947 69.2199Z" fill="#F52F3E"/>
<path d="M124.947 84.5106C127.209 84.5106 129.042 82.6791 129.042 80.4198C129.042 78.1605 127.209 76.329 124.947 76.329C122.686 76.329 120.852 78.1605 120.852 80.4198C120.852 82.6791 122.686 84.5106 124.947 84.5106Z" fill="#F52F3E"/>
<path d="M236.012 67.7233H203.626V83.5129H236.012V67.7233Z" fill="#E9EDFA"/>
<path d="M203.102 82.7646C203.102 82.7646 205.624 77.2519 208.021 77.8506C210.418 78.4492 211.017 80.9686 212.815 79.896C214.613 78.8234 215.786 74.4831 217.534 73.7847C220.031 72.8119 220.855 73.8845 224.226 75.8052C227.597 77.7258 229.02 77.3018 230.394 75.88C231.667 74.5829 234.014 71.0658 236.611 69.4943" stroke="#F52F3E" stroke-width="3" stroke-linecap="round" stroke-linejoin="round"/>
<path d="M99.9529 46.9448H51.7618V92.7173H99.9529V46.9448Z" fill="white"/>
<path d="M75.2331 87.1048C82.1144 87.1048 87.6929 81.5321 87.6929 74.6577C87.6929 67.7834 82.1144 62.2106 75.2331 62.2106C68.3517 62.2106 62.7733 67.7834 62.7733 74.6577C62.7733 81.5321 68.3517 87.1048 75.2331 87.1048Z" stroke="#F52F3E" stroke-width="6" stroke-linecap="round" stroke-linejoin="round"/>
<path d="M67.1929 50.9109H54.9329V53.8044H67.1929V50.9109Z" fill="#F52F3E"/>
<path d="M67.1929 55.4508H54.9329V58.3443H67.1929V55.4508Z" fill="#F52F3E"/>
<path d="M90.7641 114.768H128.793C128.793 114.768 130.216 114.693 130.216 113.047V109.779H89.2659V113.745C89.4657 114.369 90.065 114.793 90.7641 114.768Z" fill="#BAC5F4"/>
<path d="M89.2659 85.0844L89.241 111.026L130.216 110.652V84.336C130.216 84.336 130.466 82.8394 128.868 82.8394H90.814C90.814 82.8394 89.0912 82.8394 89.2659 85.0844Z" fill="#BAC5F4"/>
<path d="M106.495 121.727V114.518L112.488 114.768V121.104L106.495 121.727Z" fill="#BAC5F4"/>
<path d="M96.9815 121.004H121.876L121.901 122.251H96.9815V121.004Z" fill="#BAC5F4"/>
<path d="M109.366 111.55C110.041 111.55 110.565 112.074 110.565 112.747C110.565 113.421 110.041 113.945 109.366 113.945C108.692 113.945 108.168 113.421 108.168 112.747C108.168 112.074 108.717 111.55 109.366 111.55Z" fill="white"/>
<path d="M128.967 84.0866H90.5144V109.28H128.967V84.0866Z" fill="#F8F8FF"/>
<path d="M92.437 85.3837C92.7616 85.3837 93.0363 85.6581 93.0363 85.9824C93.0363 86.3066 92.7616 86.581 92.437 86.581C92.1124 86.581 91.8378 86.3066 91.8378 85.9824C91.8378 85.6581 92.1124 85.3837 92.437 85.3837Z" fill="#FA5F5D"/>
<path d="M94.4846 85.3837C94.8092 85.3837 95.0838 85.6581 95.0838 85.9824C95.0838 86.3066 94.8092 86.581 94.4846 86.581C94.16 86.581 93.8853 86.3066 93.8853 85.9824C93.8853 85.6581 94.16 85.3837 94.4846 85.3837Z" fill="#FDBC4E"/>
<path d="M96.6319 85.3837C96.9565 85.3837 97.2312 85.6581 97.2312 85.9824C97.2312 86.3066 96.9565 86.581 96.6319 86.581C96.3073 86.581 96.0327 86.3066 96.0327 85.9824C96.0327 85.6581 96.3073 85.3837 96.6319 85.3837Z" fill="#37CD58"/>
<path d="M104.997 89.7739C104.972 90.0981 104.697 90.3476 104.372 90.3226H97.0065C96.6319 90.3226 96.2574 90.0732 96.2574 89.7739V88.6514C96.2574 88.352 96.607 88.0777 97.0065 88.0777H104.348C104.672 88.0527 104.972 88.3021 104.997 88.6264V88.6514V89.7739Z" fill="url(#paint0_linear_140_231)"/>
<path d="M122.725 97.2072C122.7 97.5564 122.4 97.8308 122.051 97.8059H97.0065C96.6319 97.8059 96.2574 97.5315 96.2574 97.2072V91.6696C96.2574 91.3453 96.6319 91.0709 97.0065 91.0709H122.051C122.4 91.046 122.7 91.3204 122.725 91.6696V97.2072Z" fill="url(#paint1_linear_140_231)"/>
<path d="M104.497 101.947C104.497 102.271 104.223 102.545 103.898 102.545H97.0065C96.607 102.545 96.2574 102.271 96.2574 101.947V98.9034C96.2574 98.5791 96.6319 98.3047 97.0065 98.3047H103.848C104.173 98.2798 104.472 98.5292 104.497 98.8784V98.9034V101.947Z" fill="url(#paint2_linear_140_231)"/>
<path d="M113.486 101.947C113.486 102.271 113.212 102.545 112.887 102.545H105.995C105.596 102.545 105.246 102.271 105.246 101.947V98.9034C105.246 98.5791 105.621 98.3047 105.995 98.3047H112.837C113.162 98.2798 113.461 98.5292 113.486 98.8784V98.9034V101.947Z" fill="url(#paint3_linear_140_231)"/>
<path d="M122.725 101.947C122.7 102.296 122.4 102.57 122.051 102.545H115.209C114.835 102.57 114.535 102.296 114.485 101.947V98.9034C114.51 98.5292 114.835 98.2798 115.209 98.3047H122.051C122.4 98.2798 122.725 98.5542 122.75 98.9034L122.725 101.947Z" fill="url(#paint4_linear_140_231)"/>
<path d="M113.486 103.668C113.436 103.792 113.337 103.867 113.212 103.892C113.187 103.892 113.187 103.892 113.162 103.792H105.621C105.471 103.892 105.246 103.792 105.246 103.668V103.568C105.246 103.443 105.471 103.319 105.621 103.294H113.162C113.287 103.319 113.361 103.418 113.386 103.518C113.386 103.543 113.386 103.543 113.461 103.568L113.486 103.668Z" fill="black"/>
<path d="M113.486 104.641C113.436 104.765 113.337 104.865 113.212 104.89C113.212 104.89 113.187 104.89 113.187 104.79H105.621C105.471 104.89 105.246 104.79 105.246 104.641V104.541C105.246 104.416 105.471 104.316 105.621 104.291H113.162C113.287 104.316 113.411 104.416 113.461 104.541L113.486 104.641Z" fill="black"/>
<path d="M113.486 105.638C113.436 105.788 113.312 105.888 113.187 105.913C113.187 105.863 113.187 105.838 113.187 105.788H105.621C105.496 105.863 105.346 105.838 105.271 105.713C105.246 105.688 105.246 105.663 105.246 105.638V105.539C105.246 105.414 105.471 105.339 105.621 105.289H113.162C113.287 105.314 113.411 105.414 113.461 105.539L113.486 105.638Z" fill="black"/>
<path d="M113.486 106.611C113.411 106.761 113.312 106.91 113.187 107.035H105.621C105.471 106.91 105.246 106.761 105.246 106.611V106.511C105.246 106.387 105.471 106.237 105.621 106.287H113.162C113.262 106.262 113.361 106.337 113.386 106.437C113.386 106.461 113.386 106.486 113.386 106.511C113.386 106.511 113.386 106.511 113.461 106.536L113.486 106.611Z" fill="black"/>
<path d="M109.291 107.609C109.291 107.734 109.217 107.784 109.067 107.784H105.596C105.446 107.784 105.246 107.734 105.246 107.609V107.509C105.246 107.384 105.446 107.285 105.596 107.285H109.067C109.192 107.285 109.291 107.384 109.291 107.509V107.609Z" fill="black"/>
<path d="M122.725 103.668C122.575 103.792 122.6 103.892 122.45 103.792H114.91C114.785 103.892 114.66 103.817 114.66 103.693C114.66 103.693 114.66 103.693 114.735 103.668V103.568C114.66 103.443 114.76 103.319 114.91 103.294H122.45C122.6 103.343 122.575 103.443 122.725 103.568V103.668Z" fill="black"/>
<path d="M122.725 104.641C122.575 104.765 122.6 104.89 122.45 104.79H114.91C114.76 104.89 114.66 104.79 114.735 104.641V104.541C114.66 104.416 114.76 104.316 114.91 104.291H122.45C122.6 104.341 122.575 104.416 122.725 104.541V104.641Z" fill="black"/>
<path d="M122.725 105.638C122.575 105.763 122.6 105.913 122.45 105.788H114.91C114.76 105.888 114.66 105.788 114.735 105.638V105.539C114.66 105.414 114.76 105.339 114.91 105.289H122.45C122.6 105.339 122.575 105.414 122.725 105.539V105.638Z" fill="black"/>
<path d="M122.725 106.611C122.575 106.736 122.6 106.91 122.45 107.035H114.91C114.76 106.886 114.66 106.761 114.735 106.611V106.511C114.685 106.461 114.685 106.362 114.735 106.312C114.785 106.287 114.835 106.262 114.885 106.287H122.45C122.6 106.237 122.575 106.387 122.725 106.511V106.611Z" fill="black"/>
<path d="M118.58 107.609C118.58 107.734 118.58 107.784 118.455 107.784H114.96C114.81 107.784 114.735 107.734 114.735 107.609V107.509C114.735 107.384 114.835 107.285 114.96 107.285H118.43C118.58 107.285 118.555 107.384 118.555 107.509L118.58 107.609Z" fill="black"/>
<path d="M104.248 103.668C104.348 103.792 104.298 103.892 104.148 103.792H96.582C96.4821 103.867 96.3573 103.842 96.3073 103.768C96.2824 103.743 96.2824 103.718 96.2574 103.668V103.568C96.3073 103.418 96.4322 103.319 96.582 103.294H104.123C104.273 103.343 104.323 103.443 104.223 103.568L104.248 103.668Z" fill="black"/>
<path d="M104.248 104.641C104.348 104.765 104.298 104.89 104.148 104.79H96.582C96.4322 104.915 96.3073 104.79 96.2574 104.641V104.541C96.2824 104.416 96.4322 104.316 96.582 104.291H104.123C104.273 104.341 104.323 104.416 104.223 104.541L104.248 104.641Z" fill="black"/>
<path d="M104.248 105.638C104.348 105.763 104.298 105.913 104.148 105.788H96.582C96.4322 105.913 96.3073 105.788 96.2574 105.638V105.539C96.2824 105.414 96.4322 105.339 96.582 105.289H104.123C104.273 105.339 104.323 105.414 104.223 105.539L104.248 105.638Z" fill="black"/>
<path d="M102 106.287H104.148C104.298 106.237 104.348 106.387 104.248 106.511V106.611C104.348 106.736 104.298 106.91 104.148 107.035H96.582C96.4322 106.935 96.3323 106.786 96.2574 106.611V106.511C96.2824 106.362 96.4322 106.262 96.582 106.287H102Z" fill="black"/>
<path d="M100.502 107.609C100.502 107.734 100.427 107.784 100.277 107.784H96.5321C96.3822 107.784 96.2574 107.734 96.2574 107.609V107.509C96.2824 107.384 96.4072 107.285 96.5321 107.285H100.277C100.402 107.285 100.502 107.384 100.502 107.484C100.502 107.484 100.502 107.484 100.502 107.509V107.609Z" fill="black"/>
<path d="M20.7996 187.206C20.7996 187.206 22.9969 175.282 11.4111 168.897C-0.149821 162.511 -0.69915 162.586 -2.99634 161.862C-4.31973 161.413 -5.66808 162.361 -4.14494 164.257C-2.6218 166.178 -3.49573 166.652 -0.449455 167.5C2.59682 168.348 3.04628 172.04 4.56941 172.962C6.09255 173.885 7.41594 174.135 12.0603 176.13C16.2801 177.951 19.8757 183.09 19.8757 184.886C19.8757 186.682 23.9957 187.305 23.9957 187.305L20.7996 187.206Z" fill="url(#paint5_linear_140_231)"/>
<path d="M20.4001 185.534C20.4001 185.534 23.3465 174.559 13.2089 168.622C3.07125 162.685 -0.449454 162.76 -2.47198 162.037C-3.62058 161.613 -0.474424 163.06 0.848959 164.806C2.17234 166.577 1.84774 166.178 4.21984 167.475C6.96649 168.996 8.11508 170.468 9.7381 170.767C12.0852 171.216 11.3861 173.661 15.4561 175.482C19.1266 177.153 19.6011 181.618 19.6011 183.289C19.6011 184.986 23.1967 185.534 23.1967 185.534H20.4001Z" fill="url(#paint6_linear_140_231)"/>
<path d="M30.5876 183.913L31.7362 182.815C32.2855 182.317 32.9597 181.942 33.6838 181.743C37.2545 180.795 48.5157 177.278 53.185 168.772C53.235 168.697 53.185 168.597 53.1101 168.572H53.0851C53.0602 168.572 53.0352 168.547 53.0352 168.547C51.4871 168.423 43.4719 168.298 32.76 177.427C32.5602 177.577 32.3854 177.777 32.2356 177.951C31.9609 178.325 31.5115 178.974 31.3117 179.298C31.0371 179.797 31.5864 180.62 30.8373 181.344C30.0882 182.067 28.4652 183.888 28.4652 183.888L29.7886 184.861L30.5876 183.913Z" fill="url(#paint7_linear_140_231)"/>
<path d="M24.4951 183.214C24.4951 183.214 27.5663 155.751 19.1766 147.12C11.461 139.188 11.3361 146.472 11.3611 147.719C11.3611 147.844 11.4111 147.919 11.436 148.018C13.2588 151.411 13.883 155.327 13.2338 159.118C12.4348 163.085 18.1279 162.561 18.6272 166.477C19.1266 170.393 21.0992 176.43 20.8995 179.198C20.6997 181.967 20.6747 184.661 20.6747 184.661L23.771 184.761L24.4951 183.214Z" fill="url(#paint8_linear_140_231)"/>
<path d="M24.4701 183.289C24.4951 183.239 24.5201 183.165 24.5201 183.09C24.7198 181.294 27.2917 155.427 19.2016 147.095C11.5359 139.188 11.4111 146.347 11.461 147.644C11.486 147.794 11.5609 147.944 11.6358 148.068C12.2101 148.891 14.732 152.483 16.9793 152.084C23.1967 150.987 17.7034 158.445 21.0743 162.436C23.771 165.579 22.8721 176.455 22.6723 179.248C22.5475 180.82 22.2728 182.366 21.8733 183.888C21.7984 184.287 22.0731 184.661 22.4476 184.736C22.4726 184.736 22.4975 184.736 22.4975 184.736C22.5475 184.736 22.5974 184.761 22.6474 184.761H23.2217C23.5712 184.786 23.8709 184.611 24.0207 184.312L24.4701 183.289Z" fill="url(#paint9_linear_140_231)"/>
<path d="M27.4914 184.886C27.4914 184.886 28.0408 177.278 32.4853 172.638C33.7338 171.366 35.3069 170.493 37.0298 170.094C38.3532 169.795 40.5255 168.722 42.4232 165.155C42.4232 165.155 45.9938 160.091 49.5895 158.57C53.1601 157.023 49.5895 156.849 49.5895 156.849C49.5895 156.849 39.352 158.794 32.785 164.781C32.3605 165.155 31.936 165.504 31.4616 165.803C29.7637 166.976 25.0444 171.341 25.2442 184.137L27.4914 184.886Z" fill="url(#paint10_linear_140_231)"/>
<path d="M36.3806 184.287C36.3806 184.287 36.5304 183.364 35.3069 183.389C34.2332 183.439 16.1553 183.289 16.1553 183.289C16.1553 183.289 15.3063 183.289 15.3562 183.938C15.4062 184.586 18.1528 199.628 18.4025 199.927C18.5274 200.127 18.7022 200.276 18.9269 200.326C19.2765 200.426 31.961 200.351 31.961 200.351C32.2606 200.301 32.4853 200.077 32.5103 199.777C32.5103 199.777 36.4055 184.462 36.3806 184.287Z" fill="url(#paint11_linear_140_231)"/>
<path d="M221.03 198.231C220.356 195.387 220.131 191.745 219.682 191.671H219.182L214.413 191.72C214.413 191.72 213.414 196.26 212.915 198.156C212.865 198.281 212.79 198.605 212.69 198.83C212.59 199.154 212.59 199.503 212.59 199.827C212.69 201.548 213.364 203.02 214.887 203.793C216.61 204.641 217.909 205.465 219.657 203.793C221.429 202.097 221.704 201.074 221.03 198.231Z" fill="#4B44BE"/>
<path d="M205.923 192.12L199.881 192.444C199.881 192.444 197.484 196.585 193.988 197.582C190.692 198.53 185.249 200.825 187.671 202.122C189.469 203.17 201.104 202.222 203.926 202.446C206.048 202.621 206.623 201.324 206.398 198.48C206.248 196.335 205.923 192.12 205.923 192.12Z" fill="#4B44BE"/>
<path d="M198.682 116.763C198.682 116.763 194.637 150.064 194.363 152.234C194.088 154.404 195.761 165.504 195.761 167.624C195.761 169.745 199.731 192.469 199.731 192.469L206.048 192.194C206.048 192.194 204.775 158.744 204.925 157.123C205.049 155.502 211.966 136.095 211.966 136.095C211.966 136.095 212.465 141.234 212.465 142.855C212.465 144.476 214.363 191.795 214.363 191.795H219.856L227.647 122.101L227.522 120.754L198.682 116.763Z" fill="url(#paint12_linear_140_231)"/>
<path d="M217.235 52.4325C217.235 52.4325 211.192 54.7773 209.844 55.3011C208.495 55.8499 207.721 57.4962 207.721 57.4962C207.721 57.4962 207.047 57.0971 207.047 58.2196C207.047 59.342 207.596 61.9113 208.046 62.5848C208.77 63.7073 209.394 64.8297 209.993 66.0021C210.543 67.1745 210.343 69.5941 209.769 69.9682C209.194 70.3174 199.007 79.5218 199.007 79.5218L190.517 105.588L191.641 113.82L193.364 121.927C193.364 121.927 193.014 122.501 193.713 123.199C194.437 123.872 197.509 128.911 197.509 128.911L198.557 121.478L195.087 110.453L193.863 101.173L201.978 84.6104L230.094 89.5992L233.165 107.659L227.472 123.049L226.473 130.557L231.243 126.367C231.517 126.142 232.042 124.97 232.316 124.346L235.163 116.339L237.285 103.543C237.285 103.543 219.532 71.5896 218.633 69.6938C218.233 68.8457 218.683 66.7754 218.908 65.7277C219.132 64.7799 219.582 63.5576 220.031 63.2084C220.705 62.485 221.03 61.4623 221.205 60.5144C221.205 59.8409 221.479 57.2218 220.805 57.8703C220.68 58.0449 220.181 57.2467 219.956 56.1991C219.532 54.6775 218.458 53.4053 217.235 52.4325Z" fill="url(#paint13_linear_140_231)"/>
<path d="M214.937 78.4991C214.488 78.8982 213.814 78.8483 213.414 78.4492C213.09 77.9503 212.79 77.4515 212.565 76.9526C212.116 76.0546 208.645 70.966 208.645 70.966C208.645 70.966 200.405 73.0862 199.082 73.9343C197.733 74.8323 196.51 76.0546 196.06 77.6261C195.611 79.1976 189.244 97.7061 188.944 98.8286C188.62 99.9511 186.997 101.747 187.771 106.312C188.545 110.877 192.814 122.525 193.264 122.65C193.713 122.775 198.258 120.53 198.258 120.53C198.258 120.53 194.662 106.037 194.662 104.591C194.662 103.144 197.908 99.0531 199.207 96.2593C200.505 93.4656 201.454 91.046 201.903 89.8237C202.353 88.6015 198.033 113.92 198.033 113.92C198.033 113.92 197.933 118.509 198.807 118.958C199.606 119.358 209.294 123.049 211.567 123.922C211.791 124.022 212.066 123.872 212.191 123.648L213.639 119.557C213.639 119.507 213.689 119.457 213.739 119.507C213.789 119.507 213.789 119.557 213.789 119.557L215.137 124.022C215.187 124.247 215.462 124.371 215.687 124.346L227.622 121.777C227.622 121.777 227.447 99.7764 227.672 96.0847C227.847 92.4928 227.397 90.4473 228.071 91.4451C228.796 92.5177 231.817 102.421 231.817 104.092C231.817 105.763 228.446 120.38 228.446 120.38L232.915 122.85C232.915 122.85 238.958 106.786 239.258 104.665C239.582 102.545 239.707 101.423 238.708 99.3025C237.71 97.1823 232.216 77.9753 232.216 77.9753C232.216 77.9753 231.667 75.6305 227.622 74.4083C223.577 73.186 220.556 71.39 219.831 71.4399C219.107 71.4898 216.86 75.7054 215.861 76.9775C215.387 77.4515 215.487 77.676 214.937 78.4991Z" fill="url(#paint14_linear_140_231)"/>
<path d="M217.185 52.4575C217.185 52.4575 210.368 54.9269 208.995 55.9746C207.946 56.7479 207.721 57.4712 207.721 57.4712C207.721 57.4712 206.997 57.147 207.047 58.1946C207.097 59.2423 206.248 56.5732 205.998 55.7251C205.824 54.877 205.774 52.4824 207.621 50.7363C209.469 48.9902 211.492 47.6682 213.215 47.768C214.937 47.8677 216.336 48.3417 217.684 49.6637C219.032 50.9608 219.357 50.886 219.632 51.0107C219.906 51.1354 221.305 52.6321 221.479 54.2534C221.654 55.8748 221.155 58.2694 221.155 58.2694C221.155 58.2694 220.83 57.9202 220.481 58.1697C220.131 58.4191 220.031 56.6481 218.858 54.428C218.009 52.7817 217.185 52.4575 217.185 52.4575Z" fill="url(#paint15_linear_140_231)"/>
<path opacity="0.07" d="M212.865 132.678C212.091 134.923 209.07 139.338 207.097 142.007C205.124 144.651 199.032 150.238 199.431 157.048C199.831 163.858 203.926 181.369 203.926 182.94C203.926 184.512 202.403 191.945 201.229 194.24C200.056 196.535 199.506 200.625 200.106 200.625C201.179 200.576 202.303 200.451 203.401 200.176C204.4 199.952 205.374 199.728 206.323 199.403C206.722 199.229 206.822 197.907 206.822 197.907C206.872 197.358 206.772 196.784 206.648 196.285C206.373 195.437 206.148 194.564 206.023 193.716C205.799 187.33 205.224 172.513 205.349 171.466C205.574 169.52 204.001 159.767 205.449 154.953C206.872 150.164 212.865 132.678 212.865 132.678Z" fill="black"/>
<path opacity="0.07" d="M198.258 120.53L197.209 128.537C197.209 128.537 198.258 130.208 198.557 128.811C198.882 127.415 201.029 124.795 199.681 122.925C198.333 121.054 198.258 120.53 198.258 120.53Z" fill="black"/>
<path opacity="0.07" d="M227.547 122.75L227.197 126.566L226.748 130.258C226.748 130.258 225.225 131.381 225.25 129.934C225.3 128.487 222.678 126.342 224.676 124.895C226.673 123.448 227.547 122.75 227.547 122.75Z" fill="black"/>
<path opacity="0.07" d="M208.595 71.0159C208.87 70.966 207.297 71.3651 208.695 70.9161C211.092 70.1428 210.093 65.6529 210.093 65.6529C210.093 65.6529 210.318 67.3242 212.565 67.9976C214.813 68.6711 215.412 68.1723 212.016 69.7437C208.645 71.3152 210.393 71.864 210.618 73.9343" fill="black"/>
<path opacity="0.07" d="M201.828 91.3703L198.033 114.319C198.033 114.319 198.083 118.41 198.807 119.008C199.531 119.582 201.953 120.006 202.503 120.405C203.052 120.804 208.895 122.75 207.372 119.457C207.022 118.734 199.132 114.319 202.652 109.679C206.173 105.04 205.524 98.654 203.876 94.189C202.877 91.5698 202.378 88.7761 202.528 86.0073L201.828 91.3703Z" fill="black"/>
</g>
<defs>
<linearGradient id="paint0_linear_140_231" x1="96.2513" y1="89.1958" x2="104.991" y2="89.1958" gradientUnits="userSpaceOnUse">
<stop stop-color="#F71D69"/>
<stop offset="1" stop-color="#F8C648"/>
</linearGradient>
<linearGradient id="paint1_linear_140_231" x1="96.2513" y1="94.434" x2="122.719" y2="94.434" gradientUnits="userSpaceOnUse">
<stop stop-color="#93FD94"/>
<stop offset="1" stop-color="#21C4C0"/>
</linearGradient>
<linearGradient id="paint2_linear_140_231" x1="96.2513" y1="100.42" x2="104.491" y2="100.42" gradientUnits="userSpaceOnUse">
<stop stop-color="#93FD94"/>
<stop offset="1" stop-color="#21C4C0"/>
</linearGradient>
<linearGradient id="paint3_linear_140_231" x1="105.24" y1="100.42" x2="113.48" y2="100.42" gradientUnits="userSpaceOnUse">
<stop stop-color="#93FD94"/>
<stop offset="1" stop-color="#21C4C0"/>
</linearGradient>
<linearGradient id="paint4_linear_140_231" x1="114.479" y1="100.421" x2="122.719" y2="100.421" gradientUnits="userSpaceOnUse">
<stop stop-color="#93FD94"/>
<stop offset="1" stop-color="#21C4C0"/>
</linearGradient>
<linearGradient id="paint5_linear_140_231" x1="-4.78621" y1="174.506" x2="24.0524" y2="174.506" gradientUnits="userSpaceOnUse">
<stop stop-color="#93FD93"/>
<stop offset="0.51" stop-color="#21C2C1"/>
<stop offset="1" stop-color="#84F599"/>
</linearGradient>
<linearGradient id="paint6_linear_140_231" x1="6.01937" y1="165.408" x2="22.3854" y2="185.493" gradientUnits="userSpaceOnUse">
<stop stop-color="#93FD93"/>
<stop offset="0.51" stop-color="#21C2C1"/>
<stop offset="1" stop-color="#84F599"/>
</linearGradient>
<linearGradient id="paint7_linear_140_231" x1="24.8877" y1="188.102" x2="47.398" y2="170.667" gradientUnits="userSpaceOnUse">
<stop stop-color="#93FD93"/>
<stop offset="0.51" stop-color="#21C2C1"/>
<stop offset="1" stop-color="#84F599"/>
</linearGradient>
<linearGradient id="paint8_linear_140_231" x1="30.5509" y1="179.258" x2="11.2262" y2="154.769" gradientUnits="userSpaceOnUse">
<stop stop-color="#93FD93"/>
<stop offset="0.51" stop-color="#21C2C1"/>
<stop offset="1" stop-color="#84F599"/>
</linearGradient>
<linearGradient id="paint9_linear_140_231" x1="11.4471" y1="164.094" x2="25.0608" y2="164.094" gradientUnits="userSpaceOnUse">
<stop stop-color="#93FD93"/>
<stop offset="0.51" stop-color="#21C2C1"/>
<stop offset="1" stop-color="#84F599"/>
</linearGradient>
<linearGradient id="paint10_linear_140_231" x1="23.8939" y1="186.314" x2="38.6207" y2="164.994" gradientUnits="userSpaceOnUse">
<stop stop-color="#93FD93"/>
<stop offset="0.51" stop-color="#21C2C1"/>
<stop offset="1" stop-color="#84F599"/>
</linearGradient>
<linearGradient id="paint11_linear_140_231" x1="15.3921" y1="191.82" x2="36.4036" y2="191.82" gradientUnits="userSpaceOnUse">
<stop stop-color="#F8C547"/>
<stop offset="1" stop-color="#F71D69"/>
</linearGradient>
<linearGradient id="paint12_linear_140_231" x1="194.319" y1="154.611" x2="227.604" y2="154.611" gradientUnits="userSpaceOnUse">
<stop stop-color="#4F68CA"/>
<stop offset="1" stop-color="#5ACEED"/>
</linearGradient>
<linearGradient id="paint13_linear_140_231" x1="190.518" y1="91.4984" x2="237.292" y2="91.4984" gradientUnits="userSpaceOnUse">
<stop stop-color="#F87B58"/>
<stop offset="0.41" stop-color="#F89453"/>
<stop offset="0.71" stop-color="#F8C548"/>
<stop offset="1" stop-color="#F89C51"/>
</linearGradient>
<linearGradient id="paint14_linear_140_231" x1="187.566" y1="97.6474" x2="239.539" y2="97.6474" gradientUnits="userSpaceOnUse">
<stop stop-color="#E1A1ED"/>
<stop offset="1" stop-color="#7658F4"/>
</linearGradient>
<linearGradient id="paint15_linear_140_231" x1="205.937" y1="53.0804" x2="221.566" y2="53.0804" gradientUnits="userSpaceOnUse">
<stop stop-color="#4F68CA"/>
<stop offset="1" stop-color="#5ACEED"/>
</linearGradient>
<clipPath id="clip0_140_231">
<rect width="307" height="212" fill="white"/>
</clipPath>
</defs>
</svg>
