<svg width="279" height="265" viewBox="0 0 279 265" fill="none" xmlns="http://www.w3.org/2000/svg">
<ellipse cx="127.905" cy="135.006" rx="127.207" ry="129.994" fill="#BB0A0A"/>
<path d="M112.948 123.795C138.267 120.57 152.059 107.236 154.094 105.327C165.187 98.2338 162.9 54.9566 127.793 56.1315C109.991 56.7274 96.7898 59.5888 89.9804 63.707C71.2844 73.7506 62.4988 86.32 60.7208 88.4305C30.9493 131.254 50.3716 161.048 96.2194 174.022C169.635 184.254 187.909 179.605 207.99 221.173C224.853 148.281 139.173 154.421 112.725 134.184C109.786 131.598 102.438 125.134 112.948 123.795Z" fill="white"/>
<path d="M183.034 230.889C183.946 237.302 185.872 238.769 192.651 236.359C199.429 233.949 196.067 215.806 196.067 215.806C193.893 221.8 191.268 225.111 183.034 230.889Z" fill="white"/>
<path d="M76.8382 65.8878C74.2365 62.4832 74.3336 60.6604 78.1808 57.613C82.0279 54.5656 89.0722 64.6739 89.0722 64.6739C85.4216 63.3299 82.831 63.4531 76.8382 65.8878Z" fill="white"/>
<path d="M111.414 126.51C111.716 130.303 112.809 131.282 116.94 130.317C121.07 129.352 119.748 118.571 119.748 118.571C118.227 121.92 116.538 123.678 111.414 126.51Z" fill="white"/>
<path d="M149.397 26.7756C148.454 39.5194 148.727 55.5663 137.444 64.5287L142.406 66.1694C151.884 54.4343 151.864 36.2951 149.397 26.7756Z" fill="white"/>
<path d="M188.206 106.496C177.188 100.492 164.094 91.6689 150.664 96.6328L151.965 91.4625C166.717 89.5434 181.672 99.2671 188.206 106.496Z" fill="white"/>
</svg>
