<svg width="317" height="165" viewBox="0 0 317 165" fill="none" xmlns="http://www.w3.org/2000/svg">
<path d="M219.979 -8.94312e-06L0 130.446L6.61571 141.618L226.595 11.1727L219.979 -8.94312e-06Z" fill="#F2F2F2"/>
<path d="M267.791 10.9364L47.8119 141.382L54.4276 152.555L274.407 22.1091L267.791 10.9364Z" fill="#F2F2F2"/>
<path d="M310.138 22.898L90.1595 153.344L96.7753 164.516L316.754 34.0707L310.138 22.898Z" fill="#F2F2F2"/>
<path d="M143.284 152.914C181.321 152.914 212.157 122.056 212.157 83.991C212.157 45.9259 181.321 15.0681 143.284 15.0681C105.246 15.0681 74.411 45.9259 74.411 83.991C74.411 122.056 105.246 152.914 143.284 152.914Z" fill="white"/>
<path d="M73.8988 83.991C73.8988 45.7041 105.025 14.5555 143.284 14.5555C181.543 14.5555 212.669 45.7041 212.669 83.991C212.669 122.278 181.543 153.426 143.284 153.426C105.025 153.426 73.8988 122.278 73.8988 83.991ZM74.9234 83.991C74.9234 121.712 105.59 152.401 143.284 152.401C180.978 152.401 211.644 121.712 211.644 83.991C211.644 46.2695 180.978 15.5807 143.284 15.5807C105.59 15.5807 74.9234 46.2695 74.9234 83.991Z" fill="#3F3D56"/>
<path d="M131.007 84.2906C131.007 81.8606 131.727 79.4852 133.076 77.4647C134.425 75.4443 136.342 73.8695 138.586 72.9396C140.829 72.0097 143.298 71.7663 145.679 72.2404C148.061 72.7145 150.248 73.8846 151.965 75.6029C153.682 77.3212 154.852 79.5104 155.325 81.8937C155.799 84.277 155.556 86.7473 154.627 88.9924C153.697 91.2374 152.124 93.1562 150.105 94.5063C148.086 95.8563 145.712 96.5769 143.284 96.5769C140.028 96.5769 136.905 95.2824 134.603 92.9783C132.3 90.6742 131.007 87.5491 131.007 84.2906ZM143.284 72.6037C140.188 72.6072 137.219 73.8396 135.03 76.0306C132.84 78.2215 131.609 81.1921 131.605 84.2906C131.605 86.6021 132.29 88.8616 133.574 90.7835C134.857 92.7054 136.681 94.2034 138.815 95.0879C140.949 95.9725 143.297 96.2039 145.562 95.753C147.828 95.3021 149.909 94.189 151.542 92.5545C153.175 90.9201 154.287 88.8377 154.738 86.5706C155.189 84.3036 154.957 81.9537 154.073 79.8182C153.189 77.6827 151.693 75.8575 149.772 74.5733C147.852 73.2891 145.594 72.6037 143.284 72.6037Z" fill="#3F3D56"/>
<path d="M119.927 84.2906C119.927 79.6677 121.297 75.1486 123.863 71.3048C126.43 67.461 130.078 64.4651 134.346 62.696C138.614 60.9269 143.31 60.464 147.841 61.3659C152.371 62.2678 156.533 64.4939 159.8 67.7628C163.066 71.0317 165.291 75.1965 166.192 79.7306C167.093 84.2647 166.631 88.9644 164.863 93.2354C163.095 97.5064 160.101 101.157 156.26 103.725C152.419 106.294 147.903 107.664 143.284 107.664C140.217 107.664 137.179 107.06 134.346 105.885C131.512 104.711 128.937 102.989 126.768 100.818C124.599 98.648 122.879 96.0712 121.705 93.2354C120.531 90.3995 119.927 87.3601 119.927 84.2906ZM143.284 61.5161C138.783 61.5161 134.383 62.8518 130.64 65.3543C126.898 67.8568 123.981 71.4137 122.258 75.5752C120.536 79.7367 120.085 84.3159 120.963 88.7337C121.841 93.1515 124.009 97.2096 127.192 100.395C130.374 103.58 134.429 105.749 138.844 106.628C143.259 107.506 147.834 107.055 151.993 105.332C156.151 103.608 159.706 100.689 162.206 96.9435C164.707 93.1982 166.042 88.795 166.042 84.2906C166.035 78.2525 163.635 72.4637 159.369 68.1941C155.102 63.9245 149.318 61.5229 143.284 61.5161Z" fill="#CCCCCC"/>
<path d="M97.7679 84.2906C97.7679 75.2819 100.437 66.4754 105.439 58.9849C110.44 51.4944 117.549 45.6563 125.866 42.2088C134.183 38.7613 143.334 37.8593 152.164 39.6168C160.993 41.3743 169.103 45.7124 175.469 52.0826C181.834 58.4527 186.169 66.5688 187.925 75.4044C189.682 84.2401 188.78 93.3985 185.335 101.721C181.89 110.044 176.056 117.158 168.571 122.163C161.086 127.168 152.286 129.84 143.284 129.84C131.217 129.826 119.647 125.023 111.114 116.484C102.581 107.944 97.7816 96.3668 97.7679 84.2906ZM143.284 39.3409C134.4 39.3409 125.716 41.9772 118.329 46.9163C110.943 51.8554 105.186 58.8756 101.786 67.0891C98.3863 75.3026 97.4968 84.3405 99.2299 93.0599C100.963 101.779 105.241 109.789 111.523 116.075C117.805 122.361 125.808 126.642 134.521 128.377C143.234 130.111 152.265 129.221 160.473 125.819C168.68 122.417 175.696 116.655 180.631 109.263C185.567 101.871 188.201 93.1809 188.201 84.2906C188.187 72.3734 183.451 60.9481 175.03 52.5213C166.61 44.0945 155.193 39.3544 143.284 39.3409Z" fill="#CCCCCC"/>
<path d="M143.284 89.6846C146.426 89.6846 148.973 87.1355 148.973 83.991C148.973 80.8465 146.426 78.2973 143.284 78.2973C140.142 78.2973 137.594 80.8465 137.594 83.991C137.594 87.1355 140.142 89.6846 143.284 89.6846Z" fill="#F50057"/>
<path d="M128.611 106.166C131.753 106.166 134.3 103.617 134.3 100.473C134.3 97.328 131.753 94.7789 128.611 94.7789C125.469 94.7789 122.922 97.328 122.922 100.473C122.922 103.617 125.469 106.166 128.611 106.166Z" fill="#F50057"/>
<path d="M185.855 103.769C188.997 103.769 191.544 101.22 191.544 98.0752C191.544 94.9307 188.997 92.3816 185.855 92.3816C182.712 92.3816 180.165 94.9307 180.165 98.0752C180.165 101.22 182.712 103.769 185.855 103.769Z" fill="#F50057"/>
<path d="M143.284 86.6879C144.772 86.6879 145.979 85.4805 145.979 83.991C145.979 82.5015 144.772 81.294 143.284 81.294C141.795 81.294 140.589 82.5015 140.589 83.991C140.589 85.4805 141.795 86.6879 143.284 86.6879Z" fill="#2F2E41"/>
<path d="M185.855 100.772C187.343 100.772 188.55 99.5647 188.55 98.0752C188.55 96.5857 187.343 95.3782 185.855 95.3782C184.366 95.3782 183.16 96.5857 183.16 98.0752C183.16 99.5647 184.366 100.772 185.855 100.772Z" fill="#2F2E41"/>
<path d="M128.611 103.469C130.099 103.469 131.306 102.262 131.306 100.772C131.306 99.2827 130.099 98.0752 128.611 98.0752C127.122 98.0752 125.916 99.2827 125.916 100.772C125.916 102.262 127.122 103.469 128.611 103.469Z" fill="#2F2E41"/>
<path d="M17.5161 56.4218C19.0045 56.4218 20.2111 55.2143 20.2111 53.7248C20.2111 52.2353 19.0045 51.0278 17.5161 51.0278C16.0276 51.0278 14.821 52.2353 14.821 53.7248C14.821 55.2143 16.0276 56.4218 17.5161 56.4218Z" fill="#F50057"/>
<path d="M143.134 53.8749H24.8523V53.2755H143.733V84.1405H143.134V53.8749Z" fill="#2F2E41"/>
<path d="M9.73047 53.7248C9.73047 52.1838 10.1871 50.6775 11.0426 49.3962C11.8981 48.1149 13.114 47.1163 14.5367 46.5266C15.9593 45.9369 17.5247 45.7826 19.035 46.0832C20.5453 46.3839 21.9325 47.1259 23.0214 48.2155C24.1102 49.3052 24.8517 50.6934 25.1521 52.2048C25.4525 53.7162 25.2984 55.2827 24.7091 56.7064C24.1198 58.1301 23.1219 59.3469 21.8416 60.203C20.5612 61.0592 19.056 61.5161 17.5161 61.5161C16.4937 61.5161 15.4813 61.3146 14.5367 60.923C13.5921 60.5315 12.7338 59.9576 12.0108 59.2341C11.2879 58.5106 10.7144 57.6517 10.3231 56.7064C9.93185 55.7611 9.73047 54.748 9.73047 53.7248ZM17.5161 46.5329C16.0947 46.5329 14.7052 46.9547 13.5234 47.7449C12.3415 48.5352 11.4204 49.6584 10.8764 50.9726C10.3325 52.2867 10.1902 53.7328 10.4675 55.1279C10.7448 56.523 11.4292 57.8045 12.4343 58.8103C13.4394 59.8161 14.7199 60.5011 16.114 60.7786C17.5081 61.0561 18.9531 60.9137 20.2663 60.3693C21.5795 59.825 22.702 58.9032 23.4916 57.7205C24.2813 56.5377 24.7028 55.1473 24.7028 53.7248C24.7006 51.8181 23.9428 49.99 22.5955 48.6418C21.2482 47.2935 19.4215 46.5351 17.5161 46.5329Z" fill="#2F2E41"/>
<path d="M35.4829 134.035C36.9713 134.035 38.1779 132.828 38.1779 131.338C38.1779 129.849 36.9713 128.641 35.4829 128.641C33.9944 128.641 32.7878 129.849 32.7878 131.338C32.7878 132.828 33.9944 134.035 35.4829 134.035Z" fill="#F50057"/>
<path d="M27.6973 131.338C27.6973 129.797 28.1539 128.291 29.0094 127.009C29.8649 125.728 31.0808 124.73 32.5035 124.14C33.9261 123.55 35.4915 123.396 37.0018 123.696C38.512 123.997 39.8993 124.739 40.9881 125.829C42.077 126.918 42.8185 128.307 43.1189 129.818C43.4193 131.329 43.2651 132.896 42.6759 134.32C42.0866 135.743 41.0887 136.96 39.8083 137.816C38.528 138.672 37.0227 139.129 35.4829 139.129C33.418 139.129 31.4377 138.308 29.9776 136.847C28.5175 135.386 27.6973 133.404 27.6973 131.338ZM35.4829 124.146C34.0615 124.146 32.672 124.568 31.4902 125.358C30.3083 126.148 29.3872 127.272 28.8432 128.586C28.2993 129.9 28.1569 131.346 28.4342 132.741C28.7115 134.136 29.396 135.418 30.4011 136.423C31.4062 137.429 32.6867 138.114 34.0808 138.392C35.4749 138.669 36.9199 138.527 38.2331 137.983C39.5463 137.438 40.6687 136.516 41.4584 135.334C42.2481 134.151 42.6696 132.76 42.6696 131.338C42.6674 129.431 41.9095 127.603 40.5622 126.255C39.2149 124.907 37.3882 124.148 35.4829 124.146Z" fill="#2F2E41"/>
<path d="M269.4 69.0077C270.889 69.0077 272.095 67.8002 272.095 66.3107C272.095 64.8212 270.889 63.6138 269.4 63.6138C267.912 63.6138 266.705 64.8212 266.705 66.3107C266.705 67.8002 267.912 69.0077 269.4 69.0077Z" fill="#F50057"/>
<path d="M261.615 66.3107C261.615 64.7698 262.071 63.2634 262.927 61.9821C263.782 60.7008 264.998 59.7022 266.421 59.1125C267.844 58.5228 269.409 58.3685 270.919 58.6691C272.43 58.9698 273.817 59.7118 274.906 60.8015C275.994 61.8911 276.736 63.2794 277.036 64.7907C277.337 66.3021 277.183 67.8687 276.593 69.2923C276.004 70.716 275.006 71.9328 273.726 72.7889C272.445 73.6451 270.94 74.102 269.4 74.102C268.378 74.102 267.366 73.9005 266.421 73.5089C265.476 73.1174 264.618 72.5435 263.895 71.82C263.172 71.0965 262.599 70.2376 262.207 69.2923C261.816 68.347 261.615 67.3339 261.615 66.3107ZM269.4 59.1188C267.495 59.121 265.668 59.8794 264.321 61.2277C262.974 62.5759 262.216 64.404 262.214 66.3107C262.214 67.7332 262.635 69.1236 263.425 70.3064C264.215 71.4891 265.337 72.4109 266.65 72.9552C267.963 73.4996 269.408 73.642 270.802 73.3645C272.197 73.087 273.477 72.402 274.482 71.3962C275.487 70.3904 276.172 69.1089 276.449 67.7138C276.726 66.3187 276.584 64.8726 276.04 63.5585C275.496 62.2443 274.575 61.1211 273.393 60.3308C272.211 59.5406 270.822 59.1188 269.4 59.1188Z" fill="#2F2E41"/>
<path d="M185.555 67.2143L261.909 66.0112L261.919 66.6101L186.154 67.8043V98.0753H185.555V67.2143Z" fill="#2F2E41"/>
<path d="M42.9692 131.038H128.311V100.772H128.91V131.637H42.9692V131.038Z" fill="#2F2E41"/>
<path d="M33.9857 67.8091H1.04651V69.9067H33.9857V67.8091Z" fill="#CCCCCC"/>
<path d="M33.9857 73.8024H1.04651V75.9H33.9857V73.8024Z" fill="#CCCCCC"/>
<path d="M33.9857 79.7957H1.04651V81.8933H33.9857V79.7957Z" fill="#CCCCCC"/>
<path d="M51.9525 145.422H19.0133V147.52H51.9525V145.422Z" fill="#CCCCCC"/>
<path d="M51.9525 151.416H19.0133V153.513H51.9525V151.416Z" fill="#CCCCCC"/>
<path d="M51.9525 157.409H19.0133V159.506H51.9525V157.409Z" fill="#CCCCCC"/>
<path d="M285.87 80.6947H252.931V82.7923H285.87V80.6947Z" fill="#CCCCCC"/>
<path d="M285.87 86.6879H252.931V88.7856H285.87V86.6879Z" fill="#CCCCCC"/>
<path d="M285.87 92.6812H252.931V94.7789H285.87V92.6812Z" fill="#CCCCCC"/>
</svg>
