<svg width="165" height="162" viewBox="0 0 165 162" fill="none" xmlns="http://www.w3.org/2000/svg">
<path d="M82.1628 161.817C127.54 161.817 164.326 125.593 164.326 80.9084C164.326 36.2239 127.54 0 82.1628 0C36.7855 0 0 36.2239 0 80.9084C0 125.593 36.7855 161.817 82.1628 161.817Z" fill="#E6E6E6"/>
<path d="M150.241 80.9084C150.251 90.6104 148.121 100.195 144.002 108.979C143.875 109.25 143.744 109.521 143.613 109.792C137.314 122.697 127.078 133.268 114.382 139.98C114.116 140.12 113.85 140.26 113.583 140.395C103.861 145.379 93.0883 147.968 82.1628 147.948C78.373 147.949 74.5894 147.641 70.8496 147.027C70.5517 146.977 70.2537 146.928 69.9602 146.873C55.9669 144.384 43.0997 137.588 33.154 127.434C32.9464 127.222 32.7387 127.005 32.5265 126.789C23.0011 116.845 16.8013 104.186 14.7848 90.5648C14.7441 90.2668 14.699 89.9689 14.6629 89.6709C12.8227 75.8212 15.4027 61.7441 22.035 49.4472C22.1749 49.1809 22.3239 48.9145 22.4684 48.6527C27.5766 39.5306 34.7276 31.7152 43.3612 25.8186C43.6095 25.6471 43.8578 25.4801 44.1061 25.313C52.4483 19.766 61.9082 16.1211 71.8157 14.6364C72.1137 14.5958 72.4116 14.5506 72.7096 14.51C75.8424 14.0814 79.0008 13.8672 82.1628 13.869C92.1199 13.8527 101.961 16.0015 111.006 20.1666C111.281 20.293 111.552 20.4194 111.823 20.5503C120.282 24.5865 127.817 30.3252 133.957 37.4072C134.156 37.633 134.354 37.8632 134.544 38.0934C141.965 46.8519 146.983 57.3882 149.107 68.6697V68.6742C149.166 68.9677 149.216 69.2611 149.265 69.5591C149.916 73.3072 150.242 77.1043 150.241 80.9084Z" fill="white"/>
<path d="M88.8846 75.8124C89.8218 76.9736 90.4299 78.3652 90.6455 79.8417L123.446 73.655C122.151 66.6818 119.063 60.1659 114.485 54.7485L88.8846 75.8124Z" fill="#F50057"/>
<path d="M124.477 74.2315C124.436 73.9336 124.382 73.6401 124.328 73.3467V73.3422C123.006 66.2189 119.854 59.5619 115.181 54.0249C114.987 53.7947 114.789 53.5645 114.59 53.3433C110.824 49.0521 106.242 45.5532 101.11 43.0503H101.105C100.835 42.9194 100.568 42.7885 100.293 42.6621C92.766 39.2056 84.4079 37.9728 76.2038 39.1092C75.9058 39.1453 75.6078 39.1904 75.3099 39.2401C69.3651 40.1809 63.6848 42.362 58.638 45.6416C58.3852 45.8041 58.1325 45.9711 57.8841 46.1427C52.3425 49.8995 47.7619 54.9069 44.5124 60.7605C44.3679 61.0223 44.2235 61.2887 44.079 61.5595C40.0201 69.2849 38.4944 78.0915 39.718 86.732C39.7542 87.0345 39.7993 87.3325 39.8535 87.6259C41.22 95.9495 45.0744 103.664 50.9094 109.756C51.1125 109.972 51.3202 110.189 51.5368 110.401C57.679 116.592 65.5596 120.768 74.1316 122.374C74.4296 122.432 74.7275 122.482 75.0255 122.532C84.1603 124.048 93.5405 122.608 101.801 118.423C102.067 118.288 102.329 118.148 102.595 118.004H102.6C110.409 113.826 116.727 107.325 120.68 99.3996C120.815 99.1287 120.946 98.8579 121.073 98.587C124.64 90.9983 125.827 82.5075 124.477 74.2315ZM120.251 98.2122C120.125 98.4876 119.994 98.7585 119.858 99.0249C115.985 106.769 109.805 113.122 102.171 117.209C101.904 117.349 101.638 117.489 101.372 117.624C93.292 121.72 84.1145 123.127 75.179 121.638C74.881 121.593 74.5786 121.543 74.2851 121.484C65.9085 119.913 58.2068 115.834 52.2005 109.787C51.9838 109.575 51.7761 109.358 51.5685 109.142C45.867 103.187 42.0955 95.6505 40.7474 87.5175C40.6977 87.2241 40.6525 86.9261 40.6119 86.6282C39.4156 78.1742 40.9064 69.558 44.8736 61.9974C45.009 61.731 45.1535 61.4647 45.3024 61.1983C48.4885 55.4627 52.9795 50.5573 58.4123 46.8786C58.6606 46.707 58.9089 46.54 59.1617 46.382C64.0904 43.1849 69.6344 41.0565 75.4363 40.134C75.7297 40.0844 76.0277 40.0392 76.3302 40.0031C84.3594 38.891 92.5393 40.0987 99.9046 43.4837C100.18 43.6056 100.451 43.7365 100.717 43.8674C105.733 46.3103 110.212 49.7263 113.895 53.9166C114.093 54.1423 114.292 54.3725 114.482 54.6028C119.059 60.0202 122.148 66.5361 123.443 73.5093C123.497 73.8027 123.547 74.0961 123.592 74.3986C124.903 82.4918 123.739 90.7922 120.251 98.2122Z" fill="#CCCCCC"/>
<path d="M79.0253 74.1728L78.2894 74.6965L58.4123 46.8785L57.8841 46.1427L43.3612 25.8187C43.6095 25.6471 43.8578 25.4801 44.1061 25.313L58.6381 45.6416L59.1617 46.3819L79.0253 74.1728Z" fill="#CCCCCC"/>
<path d="M75.4724 77.7709L75.0345 78.5654L44.8736 61.9974L44.079 61.5595L22.035 49.4472C22.1749 49.1809 22.3239 48.9146 22.4684 48.6527L44.5124 60.7604L45.3024 61.1983L75.4724 77.7709Z" fill="#CCCCCC"/>
<path d="M75.0887 83.4907L40.7473 87.5176L39.8535 87.6259L14.7848 90.5648C14.7442 90.2668 14.699 89.9689 14.6629 89.6709L39.718 86.732L40.6119 86.6282L74.9848 82.5968L75.0887 83.4907Z" fill="#CCCCCC"/>
<path d="M77.3053 86.5244L52.2005 109.787L51.5368 110.401L33.1541 127.434C32.9464 127.222 32.7387 127.005 32.5266 126.789L50.9094 109.756L51.5685 109.142L76.6913 85.8607L77.3053 86.5244Z" fill="#CCCCCC"/>
<path d="M111.823 20.5504L101.11 43.0503H101.105L100.717 43.8674L86.0723 74.6288L85.2597 74.2406L99.9045 43.4837L100.293 42.6621L111.006 20.1666C111.281 20.293 111.552 20.4194 111.823 20.5504Z" fill="#CCCCCC"/>
<path d="M134.544 38.0934L115.181 54.0249L114.482 54.6027L88.0135 76.3804L87.4402 75.6852L113.895 53.9165L114.59 53.3432L133.957 37.4072C134.156 37.633 134.354 37.8632 134.544 38.0934Z" fill="#CCCCCC"/>
<path d="M149.265 69.5591L124.477 74.2315L123.592 74.3986L89.6703 80.7955L89.5032 79.9107L123.443 73.5092L124.328 73.3467V73.3422L149.107 68.6742C149.166 68.9677 149.216 69.2612 149.265 69.5591Z" fill="#CCCCCC"/>
<path d="M144.002 108.979C143.875 109.25 143.744 109.521 143.613 109.792L120.68 99.3995L119.858 99.0248L88.8848 84.9894L89.2594 84.1678L120.251 98.2122L121.073 98.587L144.002 108.979Z" fill="#CCCCCC"/>
<path d="M114.382 139.98C114.116 140.12 113.85 140.26 113.583 140.395L101.801 118.423L101.372 117.624L85.2687 87.5943L86.0632 87.17L102.171 117.209L102.595 118.004H102.6L114.382 139.98Z" fill="#CCCCCC"/>
<path d="M80.8536 88.3211L75.1789 121.638L75.0254 122.532L70.8496 147.027C70.5516 146.977 70.2537 146.928 69.9602 146.873L74.1316 122.373L74.2851 121.484L79.9597 88.1676L80.8536 88.3211Z" fill="#CCCCCC"/>
<path d="M81.1109 73.6582L80.2171 73.7846L75.4363 40.134L75.3099 39.2401L71.8157 14.6364C72.1137 14.5958 72.4116 14.5507 72.7096 14.51L76.2037 39.1092L76.3302 40.0031L81.1109 73.6582Z" fill="#CCCCCC"/>
<path d="M82.1628 89.3549C86.9 89.3549 90.7402 85.5733 90.7402 80.9084C90.7402 76.2436 86.9 72.4619 82.1628 72.4619C77.4256 72.4619 73.5853 76.2436 73.5853 80.9084C73.5853 85.5733 77.4256 89.3549 82.1628 89.3549Z" fill="#3F3D56"/>
<path d="M113.484 68.6528L107.351 71.5146L114.186 70.0837C114.186 70.0837 119.207 70.2881 119.207 68.244L127.384 63.7468C127.384 63.7468 134.334 67.4263 136.378 65.3821C138.423 63.338 134.743 59.2497 134.743 59.2497C134.743 59.2497 137.206 57.8912 136.997 57.344C136.787 56.7967 133.517 57.6144 133.517 57.6144C133.517 57.6144 125.749 53.1172 126.158 60.885L117.981 66.306C117.981 66.306 113.893 66.1998 113.484 68.6528Z" fill="#3F3D56"/>
</svg>
